# xmcd CD database file generated by Grip 3.0.7
# 
# Track frame offsets:
#       150
#       17162
#       45376
#       67273
#       98116
#       120930
#       135000
#       162135
#       187772
#       198362
#       219720
#       244112
# 
# Disc length: 3469 seconds
# 
# Revision: 1
# Processed by: cddbd v1.5PL3 Copyright (c) Steve Scherf et al.
# Submitted via: Grip 3.0.7
# 
DISCID=970d8b0c
DTITLE=Professor Washboard - Best Bands 2002
DYEAR=2002
DGENRE=Blues
TTITLE0=Suger Sweet
TTITLE1=Margareen
TTITLE2=Teen Beat
TTITLE3=Corn Dog
TTITLE4=Play that Funky Music, Washboard
TTITLE5=Statesboro Blues
TTITLE6=Help Pocky Way
TTITLE7=Stuck in Rhumba Blues
TTITLE8=Long Lonesome Blues
TTITLE9=Got Nobody
TTITLE10=Chicken Head
TTITLE11=32-20 Blues
EXTD=
EXTT0=
EXTT1=
EXTT2=
EXTT3=
EXTT4=
EXTT5=
EXTT6=
EXTT7=
EXTT8=
EXTT9=
EXTT10=
EXTT11=
PLAYORDER=
